<mxfile host="65bd71144e">
    <diagram id="VevtqfHYLRV94XmZ_G4F" name="Página-1">
        <mxGraphModel dx="1249" dy="731" grid="1" gridSize="10" guides="1" tooltips="1" connect="1" arrows="1" fold="1" page="1" pageScale="1" pageWidth="1169" pageHeight="1654" math="0" shadow="0">
            <root>
                <mxCell id="0"/>
                <mxCell id="1" parent="0"/>
                <mxCell id="2" value="Usuario" style="shape=umlActor;verticalLabelPosition=bottom;verticalAlign=top;html=1;" parent="1" vertex="1">
                    <mxGeometry x="110" y="840" width="30" height="60" as="geometry"/>
                </mxCell>
                <mxCell id="9" style="html=1;exitX=0.5;exitY=0.5;exitDx=0;exitDy=0;exitPerimeter=0;entryX=0;entryY=0.5;entryDx=0;entryDy=0;endArrow=none;endFill=0;" parent="1" source="2" target="8" edge="1">
                    <mxGeometry relative="1" as="geometry"/>
                </mxCell>
                <mxCell id="5" value="UC1: APP" style="shape=umlFrame;whiteSpace=wrap;html=1;width=120;height=30;boundedLbl=1;verticalAlign=middle;align=left;spacingLeft=5;fontStyle=1" parent="1" vertex="1">
                    <mxGeometry x="340" y="530" width="630" height="600" as="geometry"/>
                </mxCell>
                <mxCell id="6" value="ARDUINO" style="shape=umlActor;verticalLabelPosition=bottom;verticalAlign=top;html=1;" parent="1" vertex="1">
                    <mxGeometry x="1070" y="660" width="30" height="60" as="geometry"/>
                </mxCell>
                <mxCell id="47" style="edgeStyle=none;html=1;entryX=0;entryY=1;entryDx=0;entryDy=0;" edge="1" parent="1" source="8" target="11">
                    <mxGeometry relative="1" as="geometry"/>
                </mxCell>
                <mxCell id="8" value="&lt;span style=&quot;&quot;&gt;Aproximar el vehiculo al sensor&lt;/span&gt;" style="ellipse;whiteSpace=wrap;html=1;" parent="1" vertex="1">
                    <mxGeometry x="395" y="710" width="150" height="70" as="geometry"/>
                </mxCell>
                <mxCell id="11" value="&lt;span style=&quot;&quot;&gt;Detectar el movimiento dentro del rango&lt;/span&gt;" style="ellipse;whiteSpace=wrap;html=1;" parent="1" vertex="1">
                    <mxGeometry x="580" y="550" width="150" height="70" as="geometry"/>
                </mxCell>
                <mxCell id="12" value="&lt;span style=&quot;&quot;&gt;Enviar una señal al sistema correcta o incorrecta&lt;/span&gt;" style="ellipse;whiteSpace=wrap;html=1;" parent="1" vertex="1">
                    <mxGeometry x="680" y="670" width="160" height="70" as="geometry"/>
                </mxCell>
                <mxCell id="17" value="&amp;lt;&amp;lt;include&amp;gt;&amp;gt;" style="html=1;verticalAlign=bottom;labelBackgroundColor=none;endArrow=open;endFill=0;dashed=1;shape=link;exitX=1;exitY=1;exitDx=0;exitDy=0;entryX=0.5;entryY=0;entryDx=0;entryDy=0;" parent="1" source="11" target="12" edge="1">
                    <mxGeometry width="160" relative="1" as="geometry">
                        <mxPoint x="670" y="770" as="sourcePoint"/>
                        <mxPoint x="830" y="770" as="targetPoint"/>
                    </mxGeometry>
                </mxCell>
                <mxCell id="18" style="html=1;exitX=1;exitY=0.5;exitDx=0;exitDy=0;entryX=0.5;entryY=0.5;entryDx=0;entryDy=0;endArrow=none;endFill=0;entryPerimeter=0;" parent="1" source="12" target="6" edge="1">
                    <mxGeometry relative="1" as="geometry">
                        <mxPoint x="745" y="595" as="sourcePoint"/>
                        <mxPoint x="1065" y="580" as="targetPoint"/>
                    </mxGeometry>
                </mxCell>
                <mxCell id="19" value="&amp;nbsp;Abrir la puerta si hay movimiento" style="ellipse;whiteSpace=wrap;html=1;" parent="1" vertex="1">
                    <mxGeometry x="600" y="820" width="145" height="70" as="geometry"/>
                </mxCell>
                <mxCell id="21" value="&amp;lt;&amp;lt;extend&amp;gt;&amp;gt;" style="html=1;verticalAlign=bottom;labelBackgroundColor=none;endArrow=open;endFill=0;dashed=1;shape=link;exitX=0;exitY=1;exitDx=0;exitDy=0;entryX=0.5;entryY=0;entryDx=0;entryDy=0;" parent="1" source="12" target="19" edge="1">
                    <mxGeometry width="160" relative="1" as="geometry">
                        <mxPoint x="770" y="800" as="sourcePoint"/>
                        <mxPoint x="930" y="800" as="targetPoint"/>
                    </mxGeometry>
                </mxCell>
                <mxCell id="22" value="&lt;span style=&quot;&quot;&gt;Mantener la puerta cerrada si no hay movimiento&lt;/span&gt;" style="ellipse;whiteSpace=wrap;html=1;" parent="1" vertex="1">
                    <mxGeometry x="795" y="820" width="150" height="70" as="geometry"/>
                </mxCell>
                <mxCell id="23" value="&amp;lt;&amp;lt;extend&amp;gt;&amp;gt;" style="html=1;verticalAlign=bottom;labelBackgroundColor=none;endArrow=open;endFill=0;dashed=1;shape=link;exitX=1;exitY=1;exitDx=0;exitDy=0;entryX=0.5;entryY=0;entryDx=0;entryDy=0;" parent="1" source="12" target="22" edge="1">
                    <mxGeometry x="-0.2545" y="-8" width="160" relative="1" as="geometry">
                        <mxPoint x="760" y="760" as="sourcePoint"/>
                        <mxPoint x="585" y="830" as="targetPoint"/>
                        <Array as="points">
                            <mxPoint x="840" y="770"/>
                        </Array>
                        <mxPoint as="offset"/>
                    </mxGeometry>
                </mxCell>
                <mxCell id="28" value="&lt;span style=&quot;&quot;&gt;Registrar vehículo&lt;br&gt;&amp;lt;&amp;lt;Java&amp;gt;&amp;gt;&lt;br&gt;&lt;/span&gt;" style="ellipse;whiteSpace=wrap;html=1;" parent="1" vertex="1">
                    <mxGeometry x="410" y="1020" width="120" height="70" as="geometry"/>
                </mxCell>
                <mxCell id="29" style="html=1;exitX=0.5;exitY=0.5;exitDx=0;exitDy=0;exitPerimeter=0;entryX=0;entryY=0.5;entryDx=0;entryDy=0;endArrow=none;endFill=0;" parent="1" source="2" target="28" edge="1">
                    <mxGeometry relative="1" as="geometry">
                        <mxPoint x="255" y="930" as="sourcePoint"/>
                        <mxPoint x="480" y="765" as="targetPoint"/>
                    </mxGeometry>
                </mxCell>
                <mxCell id="30" value="Ver el registro de las entradas&lt;br&gt;&amp;lt;&amp;lt;Base de datos&amp;gt;&amp;gt;" style="ellipse;whiteSpace=wrap;html=1;" parent="1" vertex="1">
                    <mxGeometry x="630" y="1050" width="150" height="70" as="geometry"/>
                </mxCell>
                <mxCell id="31" value="&lt;span style=&quot;&quot;&gt;Apagar y encender el sensor&lt;br&gt;&amp;lt;&amp;lt;Java&amp;gt;&amp;gt;&lt;br&gt;&lt;/span&gt;" style="ellipse;whiteSpace=wrap;html=1;" parent="1" vertex="1">
                    <mxGeometry x="615" y="930" width="180" height="90" as="geometry"/>
                </mxCell>
                <mxCell id="34" value="&lt;span style=&quot;&quot;&gt;Validar Registro&amp;nbsp;&lt;br&gt;&amp;lt;&amp;lt;Java&amp;gt;&amp;gt;&lt;br&gt;&lt;/span&gt;" style="ellipse;whiteSpace=wrap;html=1;" vertex="1" parent="1">
                    <mxGeometry x="410" y="865" width="120" height="70" as="geometry"/>
                </mxCell>
                <mxCell id="35" value="&amp;lt;&amp;lt;extend&amp;gt;&amp;gt;" style="html=1;verticalAlign=bottom;labelBackgroundColor=none;endArrow=open;endFill=0;dashed=1;shape=link;exitX=0;exitY=0.5;exitDx=0;exitDy=0;entryX=1;entryY=0;entryDx=0;entryDy=0;" edge="1" parent="1" source="31" target="28">
                    <mxGeometry width="160" relative="1" as="geometry">
                        <mxPoint x="614" y="930" as="sourcePoint"/>
                        <mxPoint x="510" y="1000" as="targetPoint"/>
                    </mxGeometry>
                </mxCell>
                <mxCell id="36" value="&amp;lt;&amp;lt;extend&amp;gt;&amp;gt;" style="html=1;verticalAlign=bottom;labelBackgroundColor=none;endArrow=open;endFill=0;dashed=1;shape=link;exitX=0;exitY=0.5;exitDx=0;exitDy=0;entryX=1;entryY=1;entryDx=0;entryDy=0;" edge="1" parent="1" source="30" target="28">
                    <mxGeometry width="160" relative="1" as="geometry">
                        <mxPoint x="615.0000000000032" y="985" as="sourcePoint"/>
                        <mxPoint x="522.9645197617635" y="1020.5691946452719" as="targetPoint"/>
                    </mxGeometry>
                </mxCell>
                <mxCell id="39" style="html=1;exitX=0.5;exitY=0.5;exitDx=0;exitDy=0;exitPerimeter=0;entryX=0;entryY=0.5;entryDx=0;entryDy=0;endArrow=none;endFill=0;" edge="1" parent="1" source="2" target="34">
                    <mxGeometry relative="1" as="geometry">
                        <mxPoint x="135" y="885" as="sourcePoint"/>
                        <mxPoint x="480" y="770" as="targetPoint"/>
                    </mxGeometry>
                </mxCell>
                <mxCell id="40" value="&amp;lt;&amp;lt;include&amp;gt;&amp;gt;" style="html=1;verticalAlign=bottom;labelBackgroundColor=none;endArrow=open;endFill=0;dashed=1;shape=link;entryX=0.5;entryY=0;entryDx=0;entryDy=0;exitX=0.5;exitY=1;exitDx=0;exitDy=0;" edge="1" parent="1" source="34" target="28">
                    <mxGeometry width="160" relative="1" as="geometry">
                        <mxPoint x="431.60500407431323" y="939.5786489181733" as="sourcePoint"/>
                        <mxPoint x="370" y="1050" as="targetPoint"/>
                    </mxGeometry>
                </mxCell>
                <mxCell id="41" style="html=1;exitX=1;exitY=0.5;exitDx=0;exitDy=0;entryX=0.5;entryY=0.5;entryDx=0;entryDy=0;endArrow=none;endFill=0;entryPerimeter=0;" edge="1" parent="1" source="11" target="6">
                    <mxGeometry relative="1" as="geometry">
                        <mxPoint x="760" y="605" as="sourcePoint"/>
                        <mxPoint x="1014.9999999999995" y="480" as="targetPoint"/>
                    </mxGeometry>
                </mxCell>
            </root>
        </mxGraphModel>
    </diagram>
</mxfile>